<?xml version="1.0"?>
<svg xmlns="http://www.w3.org/2000/svg" xmlns:xlink="http://www.w3.org/1999/xlink" version="1.1" id="Capa_1" x="0px" y="0px" viewBox="0 0 510.527 510.527" style="enable-background:new 0 0 510.527 510.527;" xml:space="preserve" width="512px" height="512px"><g><g>
	<g>
		<path d="M217.975,102.4c-15.36,0-25.6,10.24-25.6,25.6s10.24,25.6,25.6,25.6c35.84,0,64,28.16,64,64c0,15.36,10.24,25.6,25.6,25.6    c15.36,0,25.6-10.24,25.6-25.6C333.175,153.6,281.975,102.4,217.975,102.4z" data-original="#000000" class="active-path" data-old_color="#000000" fill="#FFFFFF"/>
	</g>
</g><g>
	<g>
		<path d="M494.455,435.2l-107.52-76.8c30.72-38.4,51.2-87.04,51.2-138.24C435.575,97.28,338.295,0,217.975,0    S0.375,97.28,0.375,217.6s97.28,217.6,217.6,217.6c53.76,0,99.84-17.92,138.24-51.2l76.8,107.52c15.36,23.04,46.08,25.6,64,5.12    C514.935,476.16,514.935,450.56,494.455,435.2z M217.975,384c-92.16,0-166.4-74.24-166.4-166.4s74.24-166.4,166.4-166.4    s166.4,74.24,166.4,166.4S310.135,384,217.975,384z" data-original="#000000" class="active-path" data-old_color="#000000" fill="#FFFFFF"/>
	</g>
</g></g> </svg>
