<?xml version="1.0"?>
<svg xmlns="http://www.w3.org/2000/svg" xmlns:xlink="http://www.w3.org/1999/xlink" version="1.1" id="Capa_1" x="0px" y="0px" viewBox="0 0 512 512" style="enable-background:new 0 0 512 512;" xml:space="preserve" width="512px" height="512px"><g><g>
	<g>
		<path d="M497,240.999c-8.284,0-15,6.716-15,15C482,380.616,380.617,482,256.002,482C131.387,481.999,30.003,380.615,30,256    C30.003,131.383,131.385,30,255.998,30c55.34-0.001,107.635,19.767,148.848,55.939l-47.092,47.093    C329.191,109.314,293.591,96.4,256.002,96.4c-88.004,0-159.6,71.596-159.6,159.6s71.596,159.6,159.6,159.6    c88.003,0,159.599-71.596,159.599-159.6c0-8.284-6.716-15-15-15s-15,6.716-15,15c0,71.462-58.138,129.6-129.599,129.6    s-129.6-58.138-129.6-129.6c0-71.461,58.139-129.6,129.6-129.6c29.564,0,57.615,9.841,80.424,27.961l-47.608,47.609    c-9.79-5.971-21.054-9.168-32.815-9.168c-0.002,0-0.006,0-0.006,0c-34.847,0-63.196,28.35-63.196,63.198    c0,34.848,28.352,63.199,63.2,63.199s63.2-28.351,63.2-63.198c0-11.761-3.198-23.026-9.17-32.817L437.018,96.193    c2.93-2.93,4.395-6.77,4.393-10.608c0-3.84-1.464-7.679-4.393-10.608C388.665,26.626,324.378-0.001,255.998,0    C187.619,0,123.334,26.629,74.982,74.98C26.631,123.332,0.002,187.62,0,256c0.002,68.379,26.631,132.666,74.982,181.018    c48.352,48.352,112.639,74.981,181.02,74.982c68.379,0,132.666-26.629,181.017-74.981C485.371,388.666,512,324.378,512,255.999    C512,247.714,505.284,240.999,497,240.999z" data-original="#000000" class="active-path" data-old_color="#000000" fill="#FFFFFF"/>
	</g>
</g></g> </svg>
