<?xml version="1.0" encoding="utf-8"?>
<!-- Svg Vector Icons : http://www.onlinewebfonts.com/icon -->
<!DOCTYPE svg PUBLIC "-//W3C//DTD SVG 1.1//EN" "http://www.w3.org/Graphics/SVG/1.1/DTD/svg11.dtd">
<svg version="1.1" xmlns="http://www.w3.org/2000/svg" xmlns:xlink="http://www.w3.org/1999/xlink" x="0px" y="0px" viewBox="0 0 1000 1000" enable-background="new 0 0 1000 1000" xml:space="preserve">
<metadata> Svg Vector Icons : http://www.onlinewebfonts.com/icon </metadata>
<g><path d="M494.5,651.8c0-125.4,101.5-227.7,227.7-227.7c66.5,0,127.1,29,168.9,75.1V262.9c0-40.1-32.4-71.6-71.6-71.6H452.7c-22.2,0-40.9-17.9-40.9-40.9v0.9c0-40.1-32.4-71.6-71.6-71.6H81.6c-40.1,0-71.6,32.4-71.6,71.6v609c0,40.1,32.4,71.6,71.6,71.6h499.8C528.6,789.1,494.5,724.3,494.5,651.8z M866.3,741.4c15.4-25.6,23.9-56.3,23.9-87.8c0-95.5-75.9-173.1-169.7-173.1S550.7,558,550.7,653.5c0,95.5,75.9,173.1,169.7,173.1c35,0,68.2-11.1,95.5-29.9l122,123.7l52-52.9L866.3,741.4z M720.5,771.2c-64,0-116-52.9-116-117.7s52-117.7,116-117.7s116,52.9,116,117.7S784.4,771.2,720.5,771.2z" fill="#FFFFFF"/></g>
</svg>
