<?xml version="1.0"?>
<svg xmlns="http://www.w3.org/2000/svg" xmlns:xlink="http://www.w3.org/1999/xlink" version="1.1" id="Capa_1" x="0px" y="0px" viewBox="0 0 512 512" style="enable-background:new 0 0 512 512;" xml:space="preserve" width="512px" height="512px" class=""><g><g>
	<g>
		<path d="M135,69.499c-24.814,0-45,20.186-45,45c0,24.814,20.186,45,45,45c24.814,0,45-20.186,45-45    C180,89.685,159.814,69.499,135,69.499z" data-original="#000000" class="active-path" data-old_color="#000000" fill="#007ACC"/>
	</g>
</g><g>
	<g>
		<path d="M450,279.499c-16.538,0-30,13.462-30,30c0,16.538,13.462,30,30,30c16.538,0,30-13.462,30-30    C480,292.961,466.538,279.499,450,279.499z" data-original="#000000" class="active-path" data-old_color="#000000" fill="#007ACC"/>
	</g>
</g><g>
	<g>
		<path d="M405,429.499h-15v-15c0-8.291-6.709-15-15-15c-8.291,0-15,6.709-15,15v15h-15c-8.291,0-15,6.709-15,15    c0,8.291,6.709,15,15,15h15v15c0,8.291,6.709,15,15,15c8.291,0,15-6.709,15-15v-15h15c8.291,0,15-6.709,15-15    C420,436.208,413.291,429.499,405,429.499z" data-original="#000000" class="active-path" data-old_color="#000000" fill="#007ACC"/>
	</g>
</g><g>
	<g>
		<path d="M439.495,22.594c-19.473,1.078-37.641,10.441-49.688,25.512L262.782,199.303l69.844,69.844l153.603-124.308    c15.238-12.191,24.591-30.37,25.679-49.852C514.052,55.989,478.451,20.41,439.495,22.594z M449.464,106.246    c-5.859,5.859-15.357,5.858-21.215,0c-5.858-5.858-5.858-15.353,0-21.213c5.858-5.856,15.355-5.858,21.215,0    C455.321,90.891,455.321,100.391,449.464,106.246z" data-original="#000000" class="active-path" data-old_color="#000000" fill="#007ACC"/>
	</g>
</g><g>
	<g>
		<path d="M117.39,223.617l-31.82,31.818c-5.852,5.854-15.361,5.854-21.215,0c-5.852-5.852-5.852-15.361,0-21.213    c5.864-5.862,5.864-15.349,0.001-21.212c-5.861-5.863-15.35-5.863-21.213,0L21.93,234.223c-29.24,29.24-29.24,76.826,0,106.066    l21.213,21.215c17.547,17.545,46.093,17.545,63.64,0c5.863-5.863,15.35-5.863,21.213,0c5.863,5.861,5.863,15.35,0,21.213    c-11.984,11.984-27.076,18.781-42.697,20.942l21.484,21.484c17.547,17.547,46.093,17.547,63.64,0    c5.861-5.861,15.35-5.861,21.213,0c5.863,5.863,5.863,15.352,0,21.215c-11.984,11.984-27.076,18.781-42.697,20.942l0.269,0.271    c29.242,29.24,76.826,29.24,106.068,0l53.033-53.033L117.39,223.617z" data-original="#000000" class="active-path" data-old_color="#000000" fill="#007ACC"/>
	</g>
</g><g>
	<g>
		<path d="M318.915,297.864l-84.853-84.853c-25.61-25.61-65.281-28.783-94.386-9.535l188.773,188.773    C347.697,363.144,344.524,323.473,318.915,297.864z" data-original="#000000" class="active-path" data-old_color="#000000" fill="#007ACC"/>
	</g>
</g></g> </svg>
