<?xml version="1.0" encoding="utf-8"?>
<!-- Generator: Adobe Illustrator 19.0.0, SVG Export Plug-In . SVG Version: 6.00 Build 0)  -->
<svg version="1.1" id="Layer_1" xmlns="http://www.w3.org/2000/svg" xmlns:xlink="http://www.w3.org/1999/xlink" x="0px" y="0px"
	 viewBox="131 -131 512 512" style="enable-background:new 131 -131 512 512;" xml:space="preserve">
<g id="XMLID_2_">
	<path id="XMLID_13_" d="M456.5,334.1h46.9v-46.9h-46.9V334.1z M549.6,55h46.9V8.1h-46.9V55z M177.5-38v326
		c0,25.6,20.5,46.9,46.9,46.9h93V288h-93.8V-38h93v-46.9h-93C198-84.1,177.5-63.6,177.5-38z M549.6-84.1v46.9h46.9
		C595.6-63.6,575.2-84.1,549.6-84.1z M363.5,381h46.9v-512h-46.9V381z M549.6,241.1h46.9v-46.9h-46.9V241.1z M456.5-38h46.9v-46.9
		h-46.9V-38z M549.6,148h46.9v-46.9h-46.9V148z M549.6,334.1c25.6,0,46.9-20.5,46.9-46.9h-46.9V334.1z"  fill="#ffFFFF"/>
</g>
</svg>
