<?xml version="1.0"?>
<svg xmlns="http://www.w3.org/2000/svg" xmlns:xlink="http://www.w3.org/1999/xlink" version="1.1" id="Capa_1" x="0px" y="0px" viewBox="0 0 490.677 490.677" style="enable-background:new 0 0 490.677 490.677;" xml:space="preserve" width="512px" height="512px" class=""><g><g>
	<g>
		<path d="M487.557,237.789l-64-64c-3.051-3.051-7.659-3.947-11.627-2.304c-3.989,1.643-6.592,5.547-6.592,9.856v32h-128v-128h32    c4.309,0,8.213-2.603,9.856-6.592c1.643-3.989,0.725-8.576-2.304-11.627l-64-64c-4.16-4.16-10.923-4.16-15.083,0l-64,64    c-3.051,3.072-3.968,7.637-2.325,11.627c1.643,3.989,5.547,6.592,9.856,6.592h32v128h-128v-32c0-4.309-2.603-8.213-6.592-9.856    c-3.925-1.664-8.555-0.747-11.627,2.304l-64,64c-4.16,4.16-4.16,10.923,0,15.083l64,64c3.072,3.072,7.68,4.011,11.627,2.304    c3.989-1.621,6.592-5.525,6.592-9.835v-32h128v128h-32c-4.309,0-8.213,2.603-9.856,6.592c-1.643,3.989-0.725,8.576,2.304,11.627    l64,64c2.091,2.069,4.821,3.115,7.552,3.115s5.461-1.045,7.552-3.115l64-64c3.051-3.051,3.968-7.637,2.304-11.627    c-1.664-3.989-5.547-6.592-9.856-6.592h-32v-128h128v32c0,4.309,2.603,8.213,6.592,9.856c3.947,1.685,8.576,0.747,11.627-2.304    l64-64C491.717,248.712,491.717,241.971,487.557,237.789z" data-original="#000000" class="active-path" data-old_color="#000000" fill="#FFFFFF"/>
	</g>
</g></g> </svg>
