<?xml version="1.0"?>
<svg xmlns="http://www.w3.org/2000/svg" xmlns:xlink="http://www.w3.org/1999/xlink" version="1.1" id="Capa_1" x="0px" y="0px" viewBox="0 0 384 384" style="enable-background:new 0 0 384 384;" xml:space="preserve" width="512px" height="512px" class=""><g><g>
	<g>
		<g>
			<path d="M64,341.333C64,364.8,83.2,384,106.667,384h170.667C300.8,384,320,364.8,320,341.333v-256H64V341.333z M116.587,189.44     l30.187-30.187L192,204.48l45.227-45.227l30.187,30.187l-45.227,45.227l45.227,45.227l-30.187,30.187L192,264.853l-45.227,45.227     l-30.187-30.187l45.227-45.227L116.587,189.44z" data-original="#000000" class="active-path" data-old_color="#000000" fill="#FFFFFF"/>
			<polygon points="266.667,21.333 245.333,0 138.667,0 117.333,21.333 42.667,21.333 42.667,64 341.333,64 341.333,21.333    " data-original="#000000" class="active-path" data-old_color="#000000" fill="#FFFFFF"/>
		</g>
	</g>
</g></g> </svg>
