<?xml version="1.0"?>
<svg xmlns="http://www.w3.org/2000/svg" xmlns:xlink="http://www.w3.org/1999/xlink" version="1.1" id="Capa_1" x="0px" y="0px" viewBox="0 0 469.333 469.333" style="enable-background:new 0 0 469.333 469.333;" xml:space="preserve" width="512px" height="512px" class=""><g><path d="M234.667,149.333c-47.147,0-85.333,38.187-85.333,85.333S187.52,320,234.667,320S320,281.813,320,234.667  S281.813,149.333,234.667,149.333z M425.387,213.333C415.573,124.373,344.96,53.76,256,43.947V0h-42.667v43.947  C124.373,53.76,53.76,124.373,43.947,213.333H0V256h43.947c9.813,88.96,80.427,159.573,169.387,169.387v43.947H256v-43.947  C344.96,415.573,415.573,344.96,425.387,256h43.947v-42.667H425.387L425.387,213.333z M234.667,384  c-82.453,0-149.333-66.88-149.333-149.333s66.88-149.333,149.333-149.333S384,152.213,384,234.667S317.12,384,234.667,384z" data-original="#000000" class="active-path" data-old_color="#000000" fill="#FFFFFF"/></g> </svg>
