<?xml version="1.0"?>
<svg xmlns="http://www.w3.org/2000/svg" height="512px" viewBox="-11 0 512 512" width="512px"><g><path d="m166.28125 98.636719h-89.523438c-8.285156 0-15 6.714843-15 15 0 8.285156 6.714844 15 15 15h89.523438c8.28125 0 15-6.714844 15-15 0-8.285157-6.71875-15-15-15zm0 0" data-original="#000000" class="active-path" data-old_color="#000000" fill="#FFFFFF"/><path d="m166.28125 158.640625h-89.523438c-8.285156 0-15 6.714844-15 15s6.714844 15 15 15h89.523438c8.28125 0 15-6.714844 15-15s-6.71875-15-15-15zm0 0" data-original="#000000" class="active-path" data-old_color="#000000" fill="#FFFFFF"/><path d="m166.28125 218.644531h-89.523438c-8.285156 0-15 6.714844-15 15 0 8.285157 6.714844 15 15 15h89.523438c8.28125 0 15-6.714843 15-15 0-8.285156-6.71875-15-15-15zm0 0" data-original="#000000" class="active-path" data-old_color="#000000" fill="#FFFFFF"/><path d="m166.28125 278.648438h-89.523438c-8.285156 0-15 6.714843-15 15 0 8.285156 6.714844 15 15 15h89.523438c8.28125 0 15-6.714844 15-15 0-8.285157-6.71875-15-15-15zm0 0" data-original="#000000" class="active-path" data-old_color="#000000" fill="#FFFFFF"/><path d="m166.28125 339.65625h-89.523438c-8.285156 0-15 6.71875-15 15 0 8.285156 6.714844 15 15 15h89.523438c8.28125 0 15-6.714844 15-15 0-8.28125-6.71875-15-15-15zm0 0" data-original="#000000" class="active-path" data-old_color="#000000" fill="#FFFFFF"/><path d="m216.65625 128.636719h89.523438c8.285156 0 15-6.714844 15-15 0-8.285157-6.714844-15-15-15h-89.523438c-8.28125 0-15 6.714843-15 15 0 8.285156 6.71875 15 15 15zm0 0" data-original="#000000" class="active-path" data-old_color="#000000" fill="#FFFFFF"/><path d="m216.65625 188.640625h89.523438c8.285156 0 15-6.714844 15-15s-6.714844-15-15-15h-89.523438c-8.28125 0-15 6.714844-15 15s6.71875 15 15 15zm0 0" data-original="#000000" class="active-path" data-old_color="#000000" fill="#FFFFFF"/><path d="m274.773438 233.644531c0-8.285156-6.714844-15-15-15h-43.117188c-8.28125 0-15 6.714844-15 15 0 8.285157 6.71875 15 15 15h43.117188c8.285156 0 15-6.714843 15-15zm0 0" data-original="#000000" class="active-path" data-old_color="#000000" fill="#FFFFFF"/><path d="m416.871094 345.988281c-6.460938-5.183593-15.898438-4.148437-21.085938 2.3125l-38.632812 48.164063-23.917969-17.328125c-6.707031-4.863281-16.089844-3.363281-20.949219 3.34375-4.859375 6.710937-3.359375 16.089843 3.347656 20.949219l35.480469 25.707031c2.65625 1.921875 5.734375 2.855469 8.792969 2.855469 4.402344 0 8.753906-1.933594 11.707031-5.617188l47.574219-59.300781c5.183594-6.460938 4.148438-15.902344-2.316406-21.085938zm0 0" data-original="#000000" class="active-path" data-old_color="#000000" fill="#FFFFFF"/><path d="m454.785156 299.941406c-19.539062-19.882812-44.644531-32.414062-71.847656-36.105468v-203.425782c0-33.308594-27.101562-60.410156-60.410156-60.410156h-262.113282c-33.3125 0-60.414062 27.101562-60.414062 60.410156v347.472656c0 33.3125 27.101562 60.414063 60.410156 60.414063h210.816406c23.722657 27.867187 57.832032 43.703125 94.734376 43.703125 68.691406 0 124.574218-55.921875 124.574218-124.660156 0-32.90625-12.695312-63.945313-35.75-87.398438zm-424.785156 107.941406v-347.472656c0-16.765625 13.644531-30.410156 30.414062-30.410156h262.113282c16.769531 0 30.410156 13.644531 30.410156 30.410156v202.949219c-62.59375 6.535156-111.550781 59.640625-111.550781 123.980469 0 17.832031 3.71875 35.074218 10.851562 50.953125h-191.824219c-16.769531 0-30.414062-13.640625-30.414062-30.410157zm335.960938 74.117188c-29.957032 0-57.496094-13.753906-75.5625-37.730469-12.4375-16.511719-19.015626-36.195312-19.015626-56.929687 0-52.195313 42.429688-94.660156 94.578126-94.660156.492187 0 .988281.007812 1.480468.015624l.230469.003907c24.894531.441406 48.234375 10.480469 65.71875 28.269531 17.503906 17.808594 27.144531 41.382812 27.144531 66.371094 0 52.195312-42.425781 94.660156-94.574218 94.660156zm0 0" data-original="#000000" class="active-path" data-old_color="#000000" fill="#FFFFFF"/></g> </svg>
