<?xml version="1.0" encoding="iso-8859-1"?>
<!-- Generator: Adobe Illustrator 16.0.0, SVG Export Plug-In . SVG Version: 6.00 Build 0)  -->
<!DOCTYPE svg PUBLIC "-//W3C//DTD SVG 1.1//EN" "http://www.w3.org/Graphics/SVG/1.1/DTD/svg11.dtd">
<svg version="1.1" id="Capa_1" xmlns="http://www.w3.org/2000/svg" xmlns:xlink="http://www.w3.org/1999/xlink" x="0px" y="0px"
	 width="585.913px" height="585.913px" viewBox="0 0 585.913 585.913" style="enable-background:new 0 0 585.913 585.913;"
	 xml:space="preserve">
<g>
	<path d="M68.922,313.442l-6.554-0.026v26.642c1.888,0.325,4.15,0.382,7.441,0.473c8.816,0.214,16.701-3.298,16.701-13.455
		C86.515,317.369,78.625,313.473,68.922,313.442z"/>
	<path d="M537.112,48.974h-177.39c-0.781,0-1.553,0.076-2.329,0.123V0L11.173,46.2v492.311l346.22,47.401V535.33
		c0.776,0.058,1.542,0.109,2.329,0.109h177.39c20.756,0,37.627-16.882,37.627-37.627V86.597
		C574.739,65.859,557.868,48.974,537.112,48.974z M98.358,348.739c-6.473,5.401-17.153,8.157-34.231,7.508
		c-9.353-0.348-16.245-1.304-20.4-2.147v-91.416c4.887-1.294,14.896-2.52,24.442-2.898c11.875-0.467,19.271,0.527,25.69,4.446
		c6.223,3.391,10.761,9.914,10.761,18.751c0,8.696-4.672,16.854-14.704,20.937v0.282c10.171,3.005,17.798,11.414,17.798,24.055
		C107.71,337.118,103.954,343.984,98.358,348.739z M206.882,360.54l-1.564-40.378c-0.462-12.656-0.929-27.961-0.929-43.271
		l-0.464,0.01c-3.263,13.473-7.583,28.431-11.573,40.667l-12.428,40.273l-17.62-0.629l-10.457-39.582
		c-3.161-11.857-6.45-26.209-8.73-39.31h-0.279c-0.569,13.594-1.005,29.106-1.703,41.631l-1.693,38.1l-19.633-0.725l5.924-99.083
		l28.722-1.123l9.612,33.747c3.084,11.812,6.181,24.59,8.407,36.654l0.446,0.01c2.822-11.896,6.268-25.522,9.572-37.069
		l10.945-34.859l31.161-1.215l5.944,107.023L206.882,360.54z M323.293,312.445c-9.471,8.231-23.297,11.8-39.119,11.644
		c-3.472-0.031-6.586-0.23-8.981-0.578v39.556l-25.512-0.94V254.869c7.843-1.598,18.997-3.005,35.021-3.641
		c16.543-0.656,28.575,1.903,36.763,7.699c7.912,5.514,13.304,14.921,13.304,26.2C334.764,296.414,330.674,305.983,323.293,312.445z
		 M357.394,272.161c0.114,0.005,0.226,0.026,0.335,0.026c8.798,0,15.938-7.137,15.938-15.948c0-8.801-7.14-15.94-15.938-15.94
		c-0.109,0-0.221,0.023-0.335,0.029v-24.665c2.131-0.535,4.334-0.874,6.624-0.874h116.464c15.764,0,28.53,13.163,28.53,29.376
		v94.531c0,7.91-3.04,15.072-7.964,20.347c-7.659-19.564-17.045-40.803-30.325-37.396c-16.846,4.303-25.865,40.876-27.146,46.44
		h-0.33c-1.275-6.059-11.014-49.087-34.871-72.99c-23.928-23.917-47.152,60.444-50.284,72.339c-0.242-0.058-0.463-0.156-0.698-0.221
		V272.161z M553.237,497.823c0,8.887-7.232,16.127-16.125,16.127h-177.39c-0.792,0-1.563-0.117-2.329-0.231V401.454h168.778V193.551
		H357.394V70.717c0.766-0.113,1.532-0.242,2.329-0.242h177.39c8.893,0,16.125,7.236,16.125,16.127V497.823z"/>
	<path d="M286.092,270.182c-5.39,0.146-9.013,0.737-10.899,1.28v32.667c2.236,0.482,4.986,0.631,8.802,0.62
		c14.242-0.042,23.161-6.941,23.161-18.516C307.146,275.833,299.481,269.828,286.092,270.182z"/>
	<path d="M84.439,286.105c0-7.281-5.042-10.995-13.866-10.755c-4.173,0.11-6.575,0.462-8.2,0.782v22.014l6.297-0.053
		C78.888,297.998,84.439,293.237,84.439,286.105z"/>
	<path d="M454.406,282.429c3.23,0,6.228-0.339,8.915-0.862c3.102,1.334,6.902,2.129,11.023,2.129
		c10.541,0,19.081-5.165,19.081-11.509c0-6.365-8.54-11.52-19.081-11.52c-3.963,0-7.622,0.727-10.683,1.963
		c-1.239-1.2-2.93-1.963-4.792-1.963h-2.778c-3.521,0-6.331,2.688-6.729,6.103c-8.558,0.903-14.894,3.987-14.894,7.688
		C434.47,278.869,443.394,282.429,454.406,282.429z"/>
</g>
<g>
</g>
<g>
</g>
<g>
</g>
<g>
</g>
<g>
</g>
<g>
</g>
<g>
</g>
<g>
</g>
<g>
</g>
<g>
</g>
<g>
</g>
<g>
</g>
<g>
</g>
<g>
</g>
<g>
</g>
</svg>
