<svg xmlns="http://www.w3.org/2000/svg" xmlns:xlink="http://www.w3.org/1999/xlink" width="491" height="617" viewBox="0 0 491 617">
  <defs>
    <clipPath id="clip-path">
      <rect id="Rectangle_12" data-name="Rectangle 12" width="491" height="617" transform="translate(826 102)" fill="none"/>
    </clipPath>
  </defs>
  <g id="Mask_Group_1" data-name="Mask Group 1" transform="translate(-826 -102)" clip-path="url(#clip-path)">
    <g id="layer3" transform="translate(826 -326)">
      <path id="rect4208" d="M98.2,0A97.985,97.985,0,0,0,0,98.2V392.8A97.985,97.985,0,0,0,98.2,491H392.8A97.985,97.985,0,0,0,491,392.8V98.2A97.985,97.985,0,0,0,392.8,0Zm95.093,84.765H297.717c10.321,0,18.623,7.692,18.623,17.242V251.657H373.5c2.1,0,7.9,6.368.182,13.771L245.1,388.8,116.6,265.5c-5.764-5.334-2.378-13.848.1-13.848H174.66V102.007C174.034,92.477,182.972,84.765,193.293,84.765ZM126.3,405.919H364.7a12.526,12.526,0,0,1,12.553,12.553v10.952A12.526,12.526,0,0,1,364.7,441.977H126.3a12.526,12.526,0,0,1-12.553-12.553V418.472A12.526,12.526,0,0,1,126.3,405.919Z" transform="translate(0 491)" fill="#fff"/>
    </g>
  </g>
</svg>
