<?xml version="1.0"?>
<svg xmlns="http://www.w3.org/2000/svg" height="512px" viewBox="0 0 512 512" width="512px"><g><path d="m512 356.179688c0 4.910156-3.222656 9.132812-7.679688 10.582031l-103.617187 33.941406-33.941406 103.617187c-1.472657 4.457032-5.695313 7.679688-10.582031 7.679688-4.777344 0-8.789063-3.007812-10.34375-7.125l-89.046876-233.726562c-.574218-1.238282-.789062-2.5625-.789062-4.011719 0-6.125 5.011719-11.136719 11.136719-11.136719 1.449219 0 2.773437.214844 4.011719.789062l233.746093 89.046876c4.097657 1.535156 7.105469 5.546874 7.105469 10.34375zm0 0" data-original="#000000" class="active-path" data-old_color="#000000" fill="#FFFFFF"/><path d="m234.667969 469.332031c-129.386719 0-234.667969-105.277343-234.667969-234.664062s105.28125-234.667969 234.667969-234.667969 234.664062 105.28125 234.664062 234.667969c0 10.453125-.679687 20.734375-2.046875 30.546875-1.601562 11.648437-12.289062 19.863281-24.019531 18.21875-11.691406-1.597656-19.839844-12.371094-18.21875-24.042969 1.085937-7.890625 1.621094-16.210937 1.621094-24.722656 0-105.855469-86.125-192-192-192-105.878907 0-192 86.144531-192 192s86.121093 192 192 192c8.445312 0 16.765625-.554688 24.746093-1.644531 11.605469-1.621094 22.421876 6.570312 24.019532 18.242187 1.578125 11.667969-6.589844 22.417969-18.261719 24.019531-9.875 1.367188-20.136719 2.046875-30.503906 2.046875zm0 0" data-original="#000000" class="active-path" data-old_color="#000000" fill="#FFFFFF"/><path d="m224.535156 362.347656c-.664062 0-1.324218-.023437-2.007812-.085937-66.21875-6.144531-116.179688-61.015625-116.179688-127.617188 0-70.742187 57.535156-128.296875 128.296875-128.296875 66.816407 0 121.6875 50.066406 127.617188 116.457032 1.046875 11.734374-7.59375 22.101562-19.351563 23.148437-12.03125.851563-22.078125-7.636719-23.144531-19.351563-3.96875-44.246093-40.554687-77.609374-85.121094-77.609374-47.210937 0-85.632812 38.398437-85.632812 85.632812 0 44.4375 33.324219 81.023438 77.484375 85.140625 11.734375 1.085937 20.351562 11.476563 19.265625 23.210937-1.027344 11.070313-10.328125 19.371094-21.226563 19.371094zm0 0" data-original="#000000" class="active-path" data-old_color="#000000" fill="#FFFFFF"/></g> </svg>
